# This file uses centimeters as units for non-parametric coordinates.

mtllib pokecube.mtl
g default
v 0.603692 1.967602 0.284918
v 0.603692 1.967602 -0.284918
v 0.603692 2.157548 0.284918
v 0.603692 2.157548 -0.284918
v 0.603692 2.347493 0.284918
v 0.603692 2.347493 -0.284918
v 0.603692 2.537439 0.284918
v 0.603692 2.537439 -0.284918
v 1.173528 1.967602 0.284918
v 1.173528 1.967602 -0.284918
v 1.173528 2.157548 0.284918
v 1.173528 2.157548 0.094973
v 1.173528 2.157548 -0.094973
v 1.173528 2.157548 -0.284918
v 1.173528 2.347493 0.284918
v 1.173528 2.347493 0.094973
v 1.173528 2.347493 -0.094973
v 1.173528 2.347493 -0.284918
v 1.173528 2.537439 0.284918
v 1.173528 2.537439 -0.284918
v 1.363474 2.157548 0.094973
v 1.363474 2.157548 -0.094973
v 1.363474 2.347493 0.094973
v 1.363474 2.347493 -0.094973
v 0.603692 1.967602 0.284918
v 0.603692 2.157548 0.284918
v 0.603692 2.347493 0.284918
v 0.603692 2.537439 0.284918
v 1.173528 1.967602 0.284918
v 1.173528 2.157548 0.284918
v 1.173528 2.347493 0.284918
v 1.173528 2.537439 0.284918
v 1.173528 2.157548 0.094973
v 1.173528 2.347493 0.094973
v 1.363474 2.157548 0.094973
v 1.363474 2.347493 0.094973
v 1.173528 2.157548 -0.094973
v 1.173528 2.347493 -0.094973
v 1.363474 2.157548 -0.094973
v 1.363474 2.347493 -0.094973
v 0.603692 1.967602 -0.284918
v 0.603692 2.157548 -0.284918
v 0.603692 2.347493 -0.284918
v 0.603692 2.537439 -0.284918
v 1.173528 1.967602 -0.284918
v 1.173528 2.157548 -0.284918
v 1.173528 2.347493 -0.284918
v 1.173528 2.537439 -0.284918
v 0.603692 1.967602 0.284918
v 1.173528 1.967602 0.284918
v 0.603692 1.967602 -0.284918
v 1.173528 1.967602 -0.284918
v 1.173528 2.157548 0.094973
v 1.363474 2.157548 0.094973
v 1.173528 2.157548 -0.094973
v 1.363474 2.157548 -0.094973
v 1.173528 2.347493 0.094973
v 1.363474 2.347493 0.094973
v 1.173528 2.347493 -0.094973
v 1.363474 2.347493 -0.094973
v 0.603692 2.537439 0.284918
v 1.173528 2.537439 0.284918
v 0.603692 2.537439 -0.284918
v 1.173528 2.537439 -0.284918
vt 0.962891 0.500000
vt 0.962891 0.500000
vt 0.962891 0.500000
vt 0.962891 0.500000
vt 0.962891 0.500000
vt 0.876953 0.500000
vt 0.876953 0.500000
vt 0.876953 0.500000
vt 0.876953 0.500000
vt 0.876953 0.500000
vt 0.845703 0.500000
vt 0.845703 0.500000
vt 0.845703 0.500000
vt 0.845703 0.500000
vt 0.845703 0.500000
vt 0.962891 0.500000
vt 0.962891 0.500000
vt 0.962891 0.500000
vt 0.962891 0.500000
vt 0.962891 0.500000
vt 0.962891 0.500000
vt 0.962891 0.500000
vt 0.962891 0.500000
vt 0.962891 0.500000
vt 0.962891 0.500000
vt 0.962891 0.500000
vt 0.962891 0.500000
vt 0.876953 0.500000
vt 0.876953 0.500000
vt 0.876953 0.500000
vt 0.876953 0.500000
vt 0.876953 0.500000
vt 0.876953 0.500000
vt 0.876953 0.500000
vt 0.876953 0.500000
vt 0.876953 0.500000
vt 0.876953 0.500000
vt 0.876953 0.500000
vt 0.876953 0.500000
vt 0.845703 0.500000
vt 0.845703 0.500000
vt 0.845703 0.500000
vt 0.845703 0.500000
vt 0.845703 0.500000
vt 0.845703 0.500000
vt 0.845703 0.500000
vt 0.845703 0.500000
vt 0.845703 0.500000
vt 0.845703 0.500000
vt 0.845703 0.500000
vt 0.845703 0.500000
vt 0.958984 0.500000
vt 0.958984 0.500000
vt 0.958984 0.500000
vt 0.958984 0.500000
vt 0.958984 0.500000
vt 0.958984 0.500000
vt 0.962891 0.500000
vt 0.962891 0.500000
vt 0.962891 0.500000
vt 0.876953 0.500000
vt 0.876953 0.500000
vt 0.876953 0.500000
vt 0.962891 0.500000
vt 0.962891 0.500000
vt 0.962891 0.500000
vt 0.845703 0.500000
vt 0.845703 0.500000
vt 0.845703 0.500000
vt 0.876953 0.500000
vt 0.876953 0.500000
vt 0.876953 0.500000
vt 0.845703 0.500000
vt 0.845703 0.500000
vt 0.845703 0.500000
vt 0.958984 0.500000
vt 0.958984 0.500000
vt 0.958984 0.500000
vt 0.958984 0.500000
vt 0.958984 0.500000
vt 0.958984 0.500000
vt 0.958984 0.500000
vt 0.958984 0.500000
vt 0.958984 0.500000
vt 0.958984 0.500000
vt 0.958984 0.500000
vt 0.958984 0.500000
vt 0.962891 0.500000
vt 0.962891 0.500000
vt 0.962891 0.500000
vt 0.876953 0.500000
vt 0.876953 0.500000
vt 0.876953 0.500000
vt 0.962891 0.500000
vt 0.962891 0.500000
vt 0.962891 0.500000
vt 0.845703 0.500000
vt 0.845703 0.500000
vt 0.845703 0.500000
vt 0.876953 0.500000
vt 0.876953 0.500000
vt 0.876953 0.500000
vt 0.845703 0.500000
vt 0.845703 0.500000
vt 0.845703 0.500000
vt 0.962891 0.500000
vt 0.962891 0.500000
vt 0.962891 0.500000
vt 0.962891 0.500000
vt 0.962891 0.500000
vt 0.962891 0.500000
vt 0.958984 0.500000
vt 0.958984 0.500000
vt 0.958984 0.500000
vt 0.958984 0.500000
vt 0.958984 0.500000
vt 0.958984 0.500000
vt 0.958984 0.500000
vt 0.958984 0.500000
vt 0.958984 0.500000
vt 0.958984 0.500000
vt 0.958984 0.500000
vt 0.958984 0.500000
vt 0.845703 0.500000
vt 0.845703 0.500000
vt 0.845703 0.500000
vt 0.845703 0.500000
vt 0.845703 0.500000
vt 0.845703 0.500000
vn -1.000000 0.000000 0.000000
vn -1.000000 0.000000 0.000000
vn -1.000000 0.000000 0.000000
vn -1.000000 0.000000 0.000000
vn -1.000000 0.000000 0.000000
vn -1.000000 0.000000 0.000000
vn -1.000000 0.000000 0.000000
vn -1.000000 0.000000 0.000000
vn -1.000000 0.000000 0.000000
vn -1.000000 0.000000 0.000000
vn -1.000000 0.000000 0.000000
vn -1.000000 0.000000 0.000000
vn -1.000000 0.000000 0.000000
vn -1.000000 0.000000 0.000000
vn -1.000000 0.000000 0.000000
vn -1.000000 0.000000 0.000000
vn -1.000000 0.000000 0.000000
vn -1.000000 0.000000 0.000000
vn 1.000000 0.000000 0.000000
vn 1.000000 0.000000 0.000000
vn 1.000000 0.000000 0.000000
vn 1.000000 0.000000 0.000000
vn 1.000000 0.000000 0.000000
vn 1.000000 0.000000 0.000000
vn 1.000000 0.000000 0.000000
vn 1.000000 0.000000 0.000000
vn 1.000000 0.000000 0.000000
vn 1.000000 0.000000 0.000000
vn 1.000000 0.000000 0.000000
vn 1.000000 0.000000 0.000000
vn 1.000000 0.000000 0.000000
vn 1.000000 0.000000 0.000000
vn 1.000000 0.000000 0.000000
vn 1.000000 0.000000 0.000000
vn 1.000000 0.000000 0.000000
vn 1.000000 0.000000 0.000000
vn 1.000000 0.000000 0.000000
vn 1.000000 0.000000 0.000000
vn 1.000000 0.000000 0.000000
vn 1.000000 0.000000 0.000000
vn 1.000000 0.000000 0.000000
vn 1.000000 0.000000 0.000000
vn 1.000000 0.000000 0.000000
vn 1.000000 0.000000 0.000000
vn 1.000000 0.000000 0.000000
vn 1.000000 0.000000 0.000000
vn 1.000000 0.000000 0.000000
vn 1.000000 0.000000 0.000000
vn 1.000000 0.000000 0.000000
vn 1.000000 0.000000 0.000000
vn 1.000000 0.000000 0.000000
vn 1.000000 0.000000 0.000000
vn 1.000000 0.000000 0.000000
vn 1.000000 0.000000 0.000000
vn 1.000000 0.000000 0.000000
vn 1.000000 0.000000 0.000000
vn 1.000000 0.000000 0.000000
vn 1.000000 0.000000 0.000000
vn 1.000000 0.000000 0.000000
vn 1.000000 0.000000 0.000000
vn 0.000000 0.000000 1.000000
vn 0.000000 0.000000 1.000000
vn 0.000000 0.000000 1.000000
vn 0.000000 0.000000 1.000000
vn 0.000000 0.000000 1.000000
vn 0.000000 0.000000 1.000000
vn 0.000000 0.000000 1.000000
vn 0.000000 0.000000 1.000000
vn 0.000000 0.000000 1.000000
vn 0.000000 0.000000 1.000000
vn 0.000000 0.000000 1.000000
vn 0.000000 0.000000 1.000000
vn 0.000000 0.000000 1.000000
vn 0.000000 0.000000 1.000000
vn 0.000000 0.000000 1.000000
vn 0.000000 0.000000 1.000000
vn 0.000000 0.000000 1.000000
vn 0.000000 0.000000 1.000000
vn 0.000000 0.000000 1.000000
vn 0.000000 0.000000 1.000000
vn 0.000000 0.000000 1.000000
vn 0.000000 0.000000 1.000000
vn 0.000000 0.000000 1.000000
vn 0.000000 0.000000 1.000000
vn 0.000000 0.000000 -1.000000
vn 0.000000 0.000000 -1.000000
vn 0.000000 0.000000 -1.000000
vn 0.000000 0.000000 -1.000000
vn 0.000000 0.000000 -1.000000
vn 0.000000 0.000000 -1.000000
vn 0.000000 0.000000 -1.000000
vn 0.000000 0.000000 -1.000000
vn 0.000000 0.000000 -1.000000
vn 0.000000 0.000000 -1.000000
vn 0.000000 0.000000 -1.000000
vn 0.000000 0.000000 -1.000000
vn 0.000000 0.000000 -1.000000
vn 0.000000 0.000000 -1.000000
vn 0.000000 0.000000 -1.000000
vn 0.000000 0.000000 -1.000000
vn 0.000000 0.000000 -1.000000
vn 0.000000 0.000000 -1.000000
vn 0.000000 0.000000 -1.000000
vn 0.000000 0.000000 -1.000000
vn 0.000000 0.000000 -1.000000
vn 0.000000 0.000000 -1.000000
vn 0.000000 0.000000 -1.000000
vn 0.000000 0.000000 -1.000000
vn 0.000000 -1.000000 0.000000
vn 0.000000 -1.000000 0.000000
vn 0.000000 -1.000000 0.000000
vn 0.000000 -1.000000 0.000000
vn 0.000000 -1.000000 0.000000
vn 0.000000 -1.000000 0.000000
vn 0.000000 -1.000000 0.000000
vn 0.000000 -1.000000 0.000000
vn 0.000000 -1.000000 0.000000
vn 0.000000 -1.000000 0.000000
vn 0.000000 -1.000000 0.000000
vn 0.000000 -1.000000 0.000000
vn 0.000000 1.000000 0.000000
vn 0.000000 1.000000 0.000000
vn 0.000000 1.000000 0.000000
vn 0.000000 1.000000 0.000000
vn 0.000000 1.000000 0.000000
vn 0.000000 1.000000 0.000000
vn 0.000000 1.000000 0.000000
vn 0.000000 1.000000 0.000000
vn 0.000000 1.000000 0.000000
vn 0.000000 1.000000 0.000000
vn 0.000000 1.000000 0.000000
vn 0.000000 1.000000 0.000000
s off
g pokecube:Mesh
usemtl pokecube:phong3SG
f 3/1/1 2/2/2 1/3/3
f 4/4/4 2/5/5 3/1/6
f 5/6/7 4/7/8 3/8/9
f 6/9/10 4/10/11 5/6/12
f 7/11/13 6/12/14 5/13/15
f 8/14/16 6/15/17 7/11/18
f 9/16/19 10/17/20 11/18/21
f 11/19/22 10/20/23 12/21/24
f 12/22/25 10/23/26 13/24/27
f 13/25/28 10/26/29 14/27/30
f 11/28/31 12/29/32 15/30/33
f 15/31/34 12/32/35 16/33/36
f 13/34/37 14/35/38 17/36/39
f 17/37/40 14/38/41 18/39/42
f 15/40/43 16/41/44 19/42/45
f 16/43/46 17/44/47 19/45/48
f 17/46/49 18/47/50 19/48/51
f 19/49/52 18/50/53 20/51/54
f 21/52/55 22/53/56 23/54/57
f 23/55/58 22/56/59 24/57/60
f 29/58/61 26/59/62 25/60/63
f 30/61/64 27/62/65 26/63/66
f 30/64/67 26/65/68 29/66/69
f 31/67/70 28/68/71 27/69/72
f 31/70/73 27/71/74 30/72/75
f 32/73/76 28/74/77 31/75/78
f 35/76/79 34/77/80 33/78/81
f 36/79/82 34/80/83 35/81/84
f 37/82/85 38/83/86 39/84/87
f 39/85/88 38/86/89 40/87/90
f 41/88/91 42/89/92 45/90/93
f 42/91/94 43/92/95 46/93/96
f 45/94/97 42/95/98 46/96/99
f 43/97/100 44/98/101 47/99/102
f 46/100/103 43/101/104 47/102/105
f 47/103/106 44/104/107 48/105/108
f 51/106/109 50/107/110 49/108/111
f 52/109/112 50/110/113 51/111/114
f 55/112/115 54/113/116 53/114/117
f 56/115/118 54/116/119 55/117/120
f 57/118/121 58/119/122 59/120/123
f 59/121/124 58/122/125 60/123/126
f 61/124/127 62/125/128 63/126/129
f 63/127/130 62/128/131 64/129/132
